<?xml version="1.0" standalone="no"?>
<!DOCTYPE svg PUBLIC "-//W3C//DTD SVG 20010904//EN"
 "http://www.w3.org/TR/2001/REC-SVG-20010904/DTD/svg10.dtd">
<svg version="1.0" xmlns="http://www.w3.org/2000/svg"
 width="1652.000000pt" height="2000.000000pt" viewBox="0 0 1652.000000 2000.000000"
 preserveAspectRatio="xMidYMid meet">

<g transform="translate(0.000000,2000.000000) scale(0.100000,-0.100000)"
fill="#000000" stroke="none">
<path d="M15665 19985 c-177 -38 -416 -219 -494 -373 -69 -137 -98 -313 -87
-524 l7 -127 -83 -42 c-171 -86 -2004 -1083 -2022 -1099 -11 -11 66 -135 131
-212 107 -125 277 -237 443 -289 l85 -26 -70 -7 c-84 -9 -191 -39 -260 -73
-262 -132 -472 -444 -599 -892 -20 -68 -39 -127 -42 -130 -4 -3 -4 2 -1 12 15
40 19 256 8 356 -33 283 -147 490 -354 644 -52 39 -208 118 -235 119 -9 1
-325 -169 -701 -376 -376 -207 -685 -375 -687 -373 -3 2 -1 15 4 28 21 54 23
119 8 173 -28 97 -135 169 -283 192 -44 7 -46 9 -58 74 -30 161 -107 294 -197
341 -45 23 -125 24 -183 4 -22 -8 -41 -15 -42 -15 -1 0 -20 26 -41 58 -22 31
-64 80 -94 108 -163 154 -305 127 -429 -79 -25 -42 -74 -92 -190 -192 l-156
-135 -32 -137 c-41 -174 -127 -433 -180 -545 -62 -130 -115 -202 -195 -265
-39 -31 -106 -92 -149 -135 l-78 -78 -213 0 c-118 0 -281 -7 -366 -15 -401
-40 -1017 -192 -1609 -395 -79 -28 -146 -50 -148 -50 -1 0 -3 208 -3 463 l0
464 -422 205 c-233 114 -812 396 -1288 628 -476 232 -928 453 -1005 490 -77
37 -257 125 -400 195 -143 70 -305 149 -360 175 -55 26 -212 103 -350 170
-137 67 -299 146 -360 175 -60 29 -198 96 -306 148 l-197 95 21 58 c31 86 30
293 -1 417 -104 415 -406 622 -807 552 -228 -40 -358 -138 -468 -352 -82 -162
-120 -312 -120 -473 0 -190 50 -318 172 -440 62 -62 95 -85 181 -128 111 -55
243 -94 374 -112 44 -6 82 -12 84 -15 5 -5 11 -55 177 -1370 130 -1034 245
-1945 340 -2700 35 -280 92 -728 125 -995 34 -267 64 -488 68 -492 4 -4 225
-61 492 -128 266 -67 486 -122 487 -124 2 -1 -15 -56 -38 -122 -136 -402 -218
-809 -254 -1263 -50 -638 31 -1385 211 -1944 112 -344 340 -759 590 -1072 120
-151 412 -440 569 -564 146 -116 384 -277 550 -372 237 -135 565 -276 813
-350 40 -12 71 -23 69 -25 -2 -2 -228 -80 -503 -173 -274 -93 -518 -176 -541
-184 -45 -15 -53 -13 -53 13 0 9 -18 54 -40 100 -31 63 -58 100 -113 155 -113
113 -223 155 -402 155 -174 0 -277 -42 -395 -160 -83 -83 -142 -182 -179 -304
-26 -84 -26 -103 -1 -197 66 -251 203 -430 377 -490 215 -74 514 10 689 193
33 35 69 75 78 91 l18 27 43 -39 c50 -46 150 -99 245 -129 261 -84 743 -102
1242 -45 81 9 150 15 152 12 3 -2 10 -43 17 -91 l13 -87 -86 -93 c-48 -51
-149 -157 -225 -236 l-138 -143 -63 30 c-256 124 -484 101 -648 -63 -223 -223
-208 -610 33 -866 40 -43 98 -95 128 -115 62 -41 68 -61 36 -124 -38 -73 -121
-118 -284 -152 -83 -18 -139 -22 -302 -23 l-201 -1 -75 37 c-238 118 -483 398
-685 784 -30 57 -54 112 -54 121 0 10 77 95 172 190 115 115 167 174 157 177
-7 3 -68 14 -134 25 -66 11 -422 72 -792 135 -370 64 -679 116 -688 116 -13 0
-15 -93 -15 -886 0 -733 2 -885 13 -881 8 3 121 61 253 130 l239 126 99 -105
c602 -640 1336 -872 2028 -643 51 17 147 57 212 90 66 33 123 56 126 52 4 -5
15 -30 25 -58 29 -81 196 -409 361 -712 l154 -281 0 -199 c0 -203 -11 -537
-31 -931 -10 -218 -10 -223 12 -290 140 -427 502 -661 1139 -738 259 -31 691
-29 1400 6 369 18 640 79 910 205 l115 54 525 35 c289 20 569 41 622 46 245
27 434 116 586 274 95 99 157 215 194 361 20 80 23 114 23 300 0 221 -8 290
-52 455 -47 177 -141 338 -247 423 -28 22 -82 55 -120 72 l-70 33 -57 303
c-60 313 -66 359 -49 359 5 0 39 28 75 61 161 151 300 441 399 834 14 55 26
107 26 116 0 10 28 34 68 57 213 127 366 337 436 601 37 138 49 262 44 445
l-5 161 103 -3 c316 -10 639 133 930 411 84 80 104 95 112 82 23 -43 130 -137
191 -169 73 -38 210 -76 276 -76 65 0 214 64 325 140 256 176 311 461 151 785
l-49 100 -74 42 c-264 149 -499 165 -684 45 -125 -82 -233 -219 -297 -379
l-17 -43 -67 0 c-212 0 -496 80 -698 196 -83 48 -204 134 -205 146 0 3 57 25
128 49 1310 433 2188 1166 2673 2231 225 492 349 957 404 1508 81 822 -61
1697 -391 2399 -30 63 -53 115 -52 116 2 0 26 7 53 13 90 23 227 82 440 191
194 99 578 312 617 343 12 10 21 55 37 198 11 102 142 1247 291 2545 149 1298
273 2387 276 2420 l6 60 127 0 c118 0 130 2 182 28 121 60 314 236 377 343 71
120 86 180 86 329 0 117 -2 137 -26 198 -37 92 -102 189 -180 269 -203 206
-421 290 -633 243z m-5920 -2474 c51 -23 101 -80 114 -128 23 -96 25 -93 -24
-63 -54 33 -152 53 -272 54 l-113 1 0 40 c0 45 20 75 65 98 44 23 178 22 230
-2z m419 -264 c86 -47 119 -97 124 -185 3 -43 -1 -80 -10 -102 l-14 -34 -23
37 c-36 58 -128 133 -223 183 -48 24 -88 51 -88 58 0 19 39 66 64 77 35 15
106 1 170 -34z m-593 -18 c160 -34 363 -171 585 -393 261 -261 461 -566 524
-799 l22 -78 -66 -72 c-36 -40 -96 -105 -134 -146 l-68 -75 -63 52 c-172 143
-373 242 -493 242 -49 0 -132 -26 -151 -48 -16 -18 -12 -22 100 -82 65 -35
183 -97 263 -138 80 -40 152 -80 160 -86 8 -7 39 -26 68 -41 46 -25 52 -32 52
-59 0 -31 -14 -216 -26 -339 l-7 -67 -141 -70 c-245 -121 -383 -155 -621 -154
-151 0 -175 3 -420 52 -531 105 -500 96 -557 144 -154 130 -252 312 -233 436
10 65 16 75 115 177 48 50 94 104 103 122 9 17 31 40 49 51 78 48 200 218 252
352 21 52 60 138 87 190 40 74 58 126 85 239 74 307 151 467 262 543 77 53
156 68 253 47z m946 -355 c60 -35 119 -106 132 -160 14 -54 9 -90 -21 -157
l-21 -47 -29 59 c-32 67 -111 151 -205 218 l-63 44 17 26 c37 57 111 63 190
17z m239 -433 c140 -101 169 -239 77 -359 l-26 -35 -14 54 c-19 73 -65 147
-145 234 -38 40 -68 78 -68 84 0 19 63 51 101 51 24 0 49 -10 75 -29z m1673
-551 c63 -32 105 -92 117 -168 l6 -40 -58 29 c-69 34 -175 51 -289 47 l-80 -2
1 42 c2 84 79 127 208 116 33 -3 76 -14 95 -24z m-652 -5 c57 -17 122 -80 142
-136 10 -28 9 -30 -7 -23 -9 4 -57 9 -107 11 -72 3 -109 -1 -185 -20 -52 -14
-102 -27 -110 -28 -9 -3 -17 8 -24 33 -19 74 33 132 144 162 71 19 86 19 147
1z m1144 -71 c94 -28 159 -117 159 -218 l0 -37 -39 31 c-52 42 -176 80 -283
87 l-88 6 0 36 c0 95 109 137 251 95z m-1797 -38 c124 -72 171 -147 170 -266
-2 -141 -74 -281 -218 -426 -117 -117 -195 -158 -301 -158 -59 0 -78 4 -116
26 -53 31 -96 77 -135 143 -24 43 -26 51 -19 117 15 159 81 344 160 450 38 51
132 121 186 137 19 6 77 9 129 8 85 -2 101 -6 144 -31z m1231 -155 c588 -95
914 -295 892 -547 -13 -136 -93 -270 -294 -491 -100 -110 -144 -168 -201 -264
-40 -68 -92 -151 -115 -184 -51 -71 -117 -257 -124 -350 -3 -33 -12 -71 -20
-84 -9 -13 -26 -75 -38 -138 -27 -135 -52 -180 -126 -222 -101 -57 -247 -64
-429 -21 -100 24 -69 -2 -420 362 -131 135 -262 279 -290 320 -127 178 -214
442 -235 714 l-6 82 162 127 c89 69 167 129 173 131 12 4 267 -121 316 -156
29 -20 316 -176 343 -186 15 -5 17 0 17 38 0 94 -86 203 -225 286 -74 44 -241
113 -319 133 -41 10 -47 15 -42 33 3 12 24 99 47 194 l42 172 81 25 c142 44
240 55 471 50 149 -2 248 -9 340 -24z m973 -61 c104 -47 164 -123 166 -213 1
-50 -27 -147 -43 -147 -4 0 -13 16 -20 35 -18 51 -111 147 -200 206 -42 28
-78 52 -79 54 -11 10 14 49 41 66 40 24 80 24 135 -1z m-5095 -263 c19 -39 51
-96 71 -126 20 -29 36 -57 36 -61 0 -17 -45 -40 -78 -40 -18 0 -46 7 -61 15
-64 33 -131 148 -131 226 0 56 39 138 83 175 l32 27 6 -72 c5 -51 17 -92 42
-144z m224 -315 c28 -45 214 -102 334 -102 55 0 63 -8 48 -47 -28 -75 -102
-109 -217 -101 -108 8 -171 52 -192 136 -10 42 -5 132 9 132 3 0 11 -8 18 -18z
m1883 -127 c0 -59 -19 -95 -67 -127 -123 -85 -261 -71 -312 30 -40 81 -42 79
52 74 85 -4 203 19 266 53 48 26 61 20 61 -30z m-1383 -50 c59 -30 188 -47
286 -38 l70 6 -7 -34 c-9 -48 -35 -80 -87 -107 -38 -20 -56 -23 -129 -20 -95
3 -137 23 -166 80 -15 30 -32 138 -21 138 3 0 27 -11 54 -25z m486 -42 c41
-23 204 -23 297 0 36 9 69 12 74 7 5 -5 5 -25 1 -46 -16 -86 -133 -152 -252
-142 -85 7 -134 56 -152 151 -5 26 -7 47 -4 47 2 0 18 -8 36 -17z m1373 -166
c1 -75 13 -115 70 -230 25 -48 42 -92 39 -98 -11 -17 -106 -10 -140 11 -84 52
-139 205 -101 278 22 42 92 101 121 102 6 0 10 -28 11 -63z m178 -459 c-8 -59
18 -152 72 -261 53 -104 50 -110 -35 -104 -51 4 -58 7 -102 55 -80 87 -101
200 -49 271 16 24 92 75 117 81 2 0 0 -19 -3 -42z m-1784 -243 c482 -74 844
-285 1118 -651 91 -121 195 -303 247 -429 114 -275 97 -549 -51 -836 -142
-275 -424 -535 -669 -619 l-50 -17 -3 -136 -3 -137 -209 0 -210 0 -2 183 -3
182 -82 3 -83 3 0 -206 0 -205 -115 0 -115 0 -2 198 -3 197 -62 3 -63 3 0
-191 0 -190 -192 2 -193 3 -3 136 -3 136 -67 7 c-336 35 -681 196 -853 400
-72 84 -142 221 -169 329 -44 176 -34 436 25 672 77 309 205 536 424 756 245
245 494 371 836 423 66 10 454 -3 555 -19z m2010 -183 c0 -47 104 -165 212
-240 l57 -39 -22 -20 c-67 -62 -138 -57 -240 17 -96 69 -117 160 -57 253 31
49 50 60 50 29z m400 -379 c33 -29 150 -87 223 -109 31 -10 57 -23 57 -30 0
-23 -57 -72 -97 -83 -75 -20 -187 15 -247 78 -37 39 -47 124 -22 185 l16 39
23 -29 c12 -16 33 -39 47 -51z m826 -127 c25 -136 -198 -272 -321 -196 -32 20
-85 93 -85 116 0 6 30 10 68 10 74 0 161 26 252 74 30 16 60 29 67 30 7 0 15
-15 19 -34z m-4433 -2701 l1384 -425 1007 426 1008 427 87 -17 c324 -63 661
-263 907 -536 244 -272 417 -612 528 -1040 54 -207 61 -261 61 -510 0 -258
-13 -348 -76 -544 -38 -118 -135 -318 -203 -420 -295 -443 -795 -800 -1421
-1013 -294 -100 -685 -184 -919 -198 l-91 -6 -39 48 c-126 155 -341 287 -556
342 -117 30 -304 38 -435 18 -55 -9 -101 -14 -104 -12 -2 2 32 45 74 96 174
204 307 401 290 428 -18 30 -74 4 -261 -119 -133 -88 -229 -134 -329 -160 -98
-25 -142 -25 -240 0 -142 36 -300 127 -471 271 l-81 68 -17 -84 c-36 -181 -31
-335 14 -412 22 -38 23 -37 -76 -86 -294 -147 -599 -362 -634 -447 l-13 -31
-76 5 c-42 3 -141 11 -221 16 -936 69 -1645 227 -1934 434 -67 48 -270 254
-391 396 -199 235 -315 439 -360 633 -25 109 -40 305 -39 522 0 173 4 231 23
330 84 451 268 806 591 1139 361 372 831 640 1470 840 80 25 148 45 152 46 4
0 630 -191 1391 -425z m386 -3164 c136 -92 257 -131 411 -131 119 0 214 25
327 85 74 39 116 68 233 162 33 26 32 24 -15 -37 -75 -97 -250 -269 -335 -329
-239 -168 -470 -212 -656 -125 -95 45 -180 166 -204 293 -13 70 -13 196 1 245
l11 38 81 -79 c45 -44 111 -99 146 -122z m1268 -486 c130 -31 242 -95 356
-204 121 -116 220 -272 251 -394 12 -47 13 -75 5 -140 -12 -100 -50 -274 -84
-382 -13 -43 -23 -81 -21 -83 2 -1 21 7 42 20 33 19 53 23 125 23 79 0 91 -3
165 -39 62 -30 98 -58 165 -125 73 -74 92 -101 136 -191 80 -164 148 -391 189
-628 16 -96 17 -106 1 -155 -45 -140 -236 -291 -457 -362 -114 -37 -256 -39
-343 -5 -100 38 -204 116 -352 265 -214 215 -290 329 -336 507 -26 100 -28
288 -5 383 8 33 13 61 12 63 -2 1 -16 -3 -32 -9 -16 -6 -65 -11 -110 -12 -80
0 -214 20 -214 32 0 3 16 31 36 61 108 171 146 511 80 733 -44 149 -144 329
-245 441 l-35 38 24 21 c43 34 222 116 300 136 93 24 258 27 347 6z m-1207
-20 c392 -82 680 -470 680 -914 0 -195 -82 -359 -245 -488 -113 -90 -285 -164
-415 -179 -57 -6 -61 -8 -55 -28 4 -11 10 -57 12 -101 4 -64 1 -93 -17 -145
-68 -206 -318 -425 -695 -610 -372 -183 -709 -249 -1073 -209 -270 29 -469
108 -594 236 -55 56 -113 148 -103 163 2 4 31 10 62 14 98 11 308 63 462 115
278 93 498 200 716 349 134 91 183 131 302 244 l91 88 92 0 93 0 -40 43 c-312
339 -363 785 -129 1111 150 209 390 323 678 325 59 1 138 -6 178 -14z m-4981
-284 c201 -63 319 -249 290 -459 -19 -134 -110 -256 -236 -315 -62 -28 -77
-31 -168 -31 -117 0 -184 21 -264 84 -217 171 -201 522 29 670 106 68 234 87
349 51z m9559 -56 c86 -45 142 -104 186 -195 29 -60 31 -73 31 -171 0 -101 -1
-108 -37 -181 -60 -121 -157 -196 -289 -224 -297 -62 -560 212 -485 506 37
144 136 248 281 297 26 8 75 12 140 10 94 -3 105 -6 173 -42z m-3663 -1437
c26 -346 151 -624 385 -858 150 -149 370 -292 561 -364 63 -23 64 -25 67 -64
5 -60 -24 -168 -68 -257 -79 -160 -236 -322 -445 -457 -94 -61 -298 -168 -399
-209 -61 -25 -80 -44 -101 -106 -26 -75 25 -130 112 -120 26 3 92 30 165 68
147 75 197 83 246 36 57 -55 102 -182 102 -292 l0 -61 -69 -12 c-88 -15 -171
-51 -199 -87 -26 -33 -27 -46 -7 -84 22 -43 70 -60 197 -70 217 -18 338 -93
423 -262 70 -137 100 -278 115 -531 12 -198 4 -274 -41 -366 -89 -183 -328
-309 -700 -367 -109 -17 -579 -34 -579 -20 0 4 7 33 15 64 49 191 106 585 109
746 1 108 0 111 -37 189 -53 111 -186 243 -354 354 -68 43 -136 85 -153 92
-29 12 -30 14 -30 84 0 108 -18 290 -36 364 -21 86 -58 154 -94 175 -39 23
-112 22 -141 -2 l-24 -19 4 -250 3 -249 -65 -5 c-77 -6 -148 -38 -173 -76 -10
-15 -18 -45 -18 -67 l-1 -40 125 -7 c283 -16 476 -104 582 -265 97 -147 138
-324 141 -608 2 -151 -1 -178 -20 -240 -80 -254 -348 -435 -740 -500 -87 -14
-203 -16 -1003 -12 -876 3 -908 4 -997 24 -408 93 -667 363 -738 770 -14 79
-13 97 40 625 30 299 55 558 55 577 0 36 14 11 -403 678 l-227 362 0 303 0
303 53 13 c195 46 409 238 562 508 l43 75 50 -63 c174 -217 451 -401 755 -503
312 -104 691 -130 952 -64 245 62 477 187 710 383 220 184 467 475 630 741 78
128 36 115 365 115 l288 0 7 -92z m-4243 -85 c93 -43 151 -100 196 -191 36
-74 37 -79 37 -187 0 -104 -2 -114 -32 -176 -80 -164 -268 -262 -440 -230
-183 34 -315 167 -346 348 -19 119 22 250 109 343 91 98 175 132 314 127 82
-2 104 -7 162 -34z"/>
<path d="M8053 12585 c-145 -67 -244 -268 -229 -466 21 -291 262 -407 444
-215 105 111 156 279 132 431 -34 215 -187 325 -347 250z"/>
<path d="M9763 12601 c-50 -13 -95 -44 -130 -89 -114 -150 -72 -443 86 -601
80 -80 178 -112 266 -87 135 40 211 218 171 406 -49 235 -234 409 -393 371z"/>
<path d="M5422 10118 c-9 -46 -8 -56 7 -73 10 -11 68 -78 131 -149 l112 -129
-5 -50 c-17 -141 -129 -105 -277 91 l-25 34 -32 -45 -31 -45 89 -131 89 -130
-17 -98 c-25 -143 -25 -487 0 -603 50 -234 167 -405 331 -485 185 -91 400
-100 562 -24 123 58 210 153 289 314 93 191 137 400 139 668 l1 168 -445 185
c-245 101 -454 188 -465 193 -11 5 -112 89 -224 185 -113 97 -208 176 -211
176 -4 0 -12 -24 -18 -52z"/>
<path d="M11787 9991 l-209 -178 -381 -158 c-210 -87 -420 -174 -466 -193
l-84 -35 6 -162 c27 -667 269 -1035 682 -1035 247 0 456 122 563 328 107 204
137 544 77 860 l-14 72 90 130 90 130 -32 46 c-17 25 -32 44 -34 42 -1 -2 -24
-30 -50 -63 -137 -174 -245 -195 -245 -48 l0 52 125 141 c69 78 125 146 125
151 0 21 -23 99 -29 99 -3 0 -100 -81 -214 -179z"/>
<path d="M8666 8465 c-144 -37 -275 -135 -330 -247 -158 -323 171 -666 571
-594 163 29 302 125 365 254 31 62 33 74 33 167 0 91 -3 106 -31 165 -52 109
-155 196 -285 241 -83 28 -239 35 -323 14z m281 -176 c101 -49 153 -130 153
-241 0 -165 -137 -286 -313 -276 -214 11 -343 209 -254 390 74 150 252 205
414 127z"/>
</g>
</svg>
