<?xml version="1.0" encoding="utf-8"?>
<!-- Generator: Adobe Illustrator 16.0.0, SVG Export Plug-In . SVG Version: 6.00 Build 0)  -->
<!DOCTYPE svg PUBLIC "-//W3C//DTD SVG 1.1//EN" "http://www.w3.org/Graphics/SVG/1.1/DTD/svg11.dtd">
<svg version="1.1" id="Layer_1" xmlns="http://www.w3.org/2000/svg" xmlns:xlink="http://www.w3.org/1999/xlink" x="0px" y="0px"
	 width="864px" height="864px" viewBox="0 0 864 864" enable-background="new 0 0 864 864" xml:space="preserve">
<path fill-rule="evenodd" clip-rule="evenodd" d="M543,845c-20.129-4.56-40.18-9.527-60.428-13.479
	c-8.054-1.571-36.488-4.423-36.957-4.512c-15.34-2.911-17.733-15.541-20.543-27.66c-2.57-11.082-4.139-22.427-7.248-33.343
	c-2.018-7.085-5.906-13.659-9.214-20.335c-0.559-1.127-2.372-2.147-3.693-2.27c-2.435-0.225-4.954,0.119-7.405,0.462
	C360,748,343,720,340.614,708.218c-2.674-13.206,0.386-35.218,8.89-42.825C367,648,380.515,647.735,392.845,650.111
	c6.579,1.268,13.056,3.465,19.294,5.958c4.084,1.632,6.18,2.169,9.217-2.331c3.801-5.633,5.234-11.186,4.645-17.623
	c-0.278-3.042-1.494-4.254-4.894-5.442c-10.224-3.573-19.989-8.444-29.996-12.659c-2.145-0.903-4.578-1.726-6.841-1.636
	c-7.597,0.302-15.395,2.376-22.697,1.193c-6.312-1.022-12.652-4.759-17.937-8.696c-14.383-10.715-22.004-24.653-18.066-43.334
	c0.777-3.686,0.14-7.648,0.503-11.45c0.355-3.715-1.145-5.604-4.486-7.218c-18.181-8.776-32.785-21.727-43.824-38.644
	c-2.077-3.184-3.938-6.508-6.039-9.998c-4.492,0.227-25.229,23.574-33.591,29.268c-26.544,18.071-54.913,24.108-85.728,13.431
	c-21.536-7.463-32.208-24.111-35.229-45.817C115.764,484.967,113,453,122.14,431.64c4.809-12.474,9.997-24.816,15.464-37.017
	c9.985-22.284,24.431-41.639,40.107-60.182c10.478-12.395,49.677-51.937,55.416-57.571c16.708-16.401,76.216-50.819,85.726-56.693
	c9.098-5.62,17.282-12.699,26.056-18.87c9.189-6.464,18.218-13.301,28.001-18.743c16.905-9.403,34.324-17.921,53.229-22.733
	c6.073-1.546,12.263-3.495,18.432-3.615c11.807-0.23,19.207-6.549,23.133-16.427c4.933-12.411,12.268-23.381,18.989-34.66
	c9.519-15.976,23.206-28.598,37.323-40.455c19.979-16.781,41.443-31.404,66.756-39.055C598.598,23.251,606.91,22.494,615,21
	c8.333,0,16.667,0,25,0c7.493,1.871,15.09,3.409,22.455,5.692c11.028,3.418,30.935,16.135,31.174,16.363
	c6.836,6.534,13.829,12.911,20.472,19.636c15.616,15.81,26.039,34.646,31.107,56.239C747.688,129.491,751,136,751,151
	c0,3.333-5.982,42.82-14.725,56.764c-5.757,9.183-11.771,18.117-21.599,23.359c-2.48,1.324-13.466,7.812-9.307,10.936
	c1.694,1.272,3.477,2.551,4.808,4.166c17.338,21.036,28.853,45.116,35.715,71.302c5.84,22.284,5.621,44.97,1.752,67.631
	c-3.311,19.389-10.235,37.319-22.094,53.106c-8.545,11.374-17.464,22.467-26.766,34.391c2.12,2.481,4.5,6.162,7.711,8.851
	c8.258,6.917,12.73,15.175,11.861,26.219c-0.509,6.457,0.983,13.295-0.586,19.406c-5.125,19.963-22.648,32.81-43.502,32.761
	c-3.495-0.009-5.233,1.07-6.742,4.214c-6.319,13.171-15.297,24.417-26.105,34.174c-3.538,3.194-9.216,5.212-10.793,9.05
	c-1.58,3.845,1.081,9.277,1.289,14.04c0.893,20.486-0.673,40.866-5.797,60.687c-3.751,14.51-9.201,28.582-13.924,42.839
	c-2.95,8.905-2.946,9.019,5.228,13.961c0.967,0.585,2.11,0.878,3.172,1.307c7.632,3.085,15.731,4.491,19.637,14.013
	c3.476,8.475,3.787,24.229-2.291,31.303c-12.775,14.868-28.311,25.885-46.577,33.072c-1.884,0.742-4.216,1.836-5.079,3.444
	C579.469,834.683,569.421,842.757,555,845C551,845,547,845,543,845z"/>
<g>
	<path fill-rule="evenodd" clip-rule="evenodd" fill="#FFFFFF" d="M607.659,312.231c19.736,0.086,36.235,1.309,52.062,7.047
		c28.897,10.477,45.896,31.08,53.058,60.834c6.851,28.455-0.307,53.321-18.316,75.195c-12.043,14.626-26.715,26.743-42.37,37.498
		c-22.251,15.288-45.641,28.522-70.825,38.401c-22.598,8.864-44.797,18.84-68.718,23.982c-9.355,2.011-18.515,4.914-27.829,7.141
		c-3.192,0.764-6.604,0.558-9.877,1.046c-12.977,1.938-25.977,2.938-38.597-1.552c-6.654-2.366-13.384-5.079-19.223-8.934
		c-2.857-1.887-4.185-6.594-5.428-10.285c-1.377-4.092-4.134-6.587-7.525-8.682C384,522,385.937,485.57,386.081,484.641
		c4.676-30.176,13.417-58.715,33.961-82.317c4.462-5.126,9.531-9.718,14.15-14.714c2.838-3.071,5.35-6.444,8.014-9.677
		c0.419-0.508,0.795-1.087,1.312-1.473c8.427-6.299,16.583-13.013,25.368-18.768c25.951-17.002,54.106-29.114,83.948-37.664
		C571.84,314.582,591.135,312.591,607.659,312.231z M422.725,451.812c0,1.995-0.191,4.013,0.031,5.983
		c1.692,15.084,4.043,29.428,20.793,36.391c9.432,3.92,25.205-0.733,28.35-12.223c3.308-12.088,4.691-23.817-0.104-35.793
		c-2.866-7.157-6.309-13.83-12.177-19.038C453.288,421.514,450,418,437,423S421,438,422.725,451.812z M686.137,375.169
		c-1.779-6.279-2.908-12.837-5.465-18.782c-6.353-14.77-18.086-24.947-35.83-23.689c-9.141,0.648-15.705,7.655-15.05,16.578
		c0.266,3.621,0.586,7.262,1.253,10.825c2.781,14.849,9.341,27.127,23.691,33.928C667.57,400.11,686.8,393.711,686.137,375.169z
		 M585.102,424.064c-5.166,1.019-10.563,1.41-15.442,3.208c-6.959,2.563-12.576,7.371-13.392,15.246
		c-1.221,11.797,2.367,19.999,13.501,20.564c5.469,0.277,11.245-0.714,16.512-2.336c8.583-2.645,15.943-12.84,15.545-21.443
		C601.47,431.637,598.156,424.009,585.102,424.064z M578.447,495.139c15.146-0.794,24.89-7.634,28.369-20.417
		c0.832-3.054-0.2-4.965-3.072-5.589c-2.669-0.579-4.329-0.041-4.964,3.564c-2.219,12.606-13.696,17.602-25.602,11.969
		c-2.807-1.329-6.375-1.341-9.591-1.334c-0.951,0.002-2.405,2.033-2.684,3.337c-0.216,1.015,0.767,3.078,1.677,3.409
		C567.794,491.975,573.144,493.492,578.447,495.139z"/>
	<path fill-rule="evenodd" clip-rule="evenodd" fill="#FFFFFF" d="M445.065,625.912c-9.403-2.364-18.673-4.218-27.606-7.11
		c-6.011-1.946-11.684-5.124-17.196-8.292c-1.307-0.751-1.401-3.665-1.985-5.604c-0.569-1.892-0.629-5.094-1.664-5.434
		c-1.889-0.62-5.214-0.361-6.407,0.938c-10.395,11.327-22.053,6.155-33.075,2.31c-12.81-4.471-18.257-15.224-19.927-27.992
		c-0.332-2.534,0.942-5.298,1.581-7.931c0.308-1.272,1.374-2.558,1.214-3.716c-0.908-6.597,2.602-11.864,5.326-17.2
		c1.216-2.382,4.001-4.692,6.563-5.522c8.44-2.731,16.989-5.825,25.715-6.776c8.51-0.927,25.175,8.962,27.255,23.548
		c0.513,3.598,0.097,7.388,1.015,10.848c0.736,2.776,2.405,5.725,4.562,7.498c0.864,0.71,4.081-1.804,6.347-2.347
		c2.632-0.632,5.43-1.135,8.093-0.919c3.053,0.248,6.062,1.257,9.047,2.09c11.579,3.231,23.167,6.438,34.67,9.924
		c1.193,0.362,1.98,2.449,2.725,3.858c7.643,14.481,18.614,25.985,33.008,33.466c7.291,3.789,15.869,5.158,23.935,7.371
		c3.157,0.866,5.703-0.839,6.74-3.773c1.581-4.472,2.973-9.056,3.925-13.698c3.526-17.179,6.807-34.407,10.314-51.59
		c0.207-1.013,1.439-2.198,2.47-2.599c7.99-3.11,16.062-6.008,24.08-9.051c6.732-2.556,8.979-1.856,13.202,4.029
		c8.292,11.556,16.711,23.021,24.905,34.646c1.059,1.502,1.227,3.702,1.58,5.621c3.534,19.159,5.488,38.491,4.244,57.947
		c-1.46,22.829-7.345,44.66-16.858,65.477c-2.047,4.478-4.681,8.713-6.38,13.306c-0.551,1.487,0.433,4.484,1.729,5.529
		c3.373,2.718,2.118,5.264,0.305,7.662c-1.89,2.5-4.55,4.422-6.399,6.944c-1.066,1.454-4.118,3.63-1.745,5.431
		c1.627,1.199,5.87,2.212,6.945,1.247c6.514-5.85,14.231-4.891,21.785-4.611c2.108,0.078,4.513,1.37,6.168,2.81
		c6.111,5.312,6.833,18.645,1.89,25.044c-8.601,11.134-20.145,18.567-31.838,25.85c-1.814,1.13-3.66,2.211-6.242,3.768
		c-2.706-4.976-5.55-9.596-7.796-14.489c-2.914-6.347-7.381-10.837-13.813-13.449c-2.301-0.934-4.627-1.822-6.864-2.895
		c-3.816-1.828-5.765-4.457-4.774-9.123c0.853-4.021,0.79-8.234,1.149-12.361c0.3-3.45-0.979-5.777-4.539-6.564
		c-3.848-0.851-5.142,1.649-5.657,4.62c-0.786,4.527-1.751,9.12-1.679,13.67c0.061,3.805-0.734,6.001-4.682,6.499
		c-0.631,0.08-1.35,0.358-1.805,0.784c-2.293,2.145-6.621,3.401-6.757,6.563c0.136,2.838,5.958,3.238,9.142,3.982
		c3.498,0.816,7.255,0.455,10.871,0.857c12.63,1.404,20.846,9.792,22.058,22.369c1.376,14.271-7.536,24.744-21.833,23.396
		c-15.431-1.455-30.666-4.941-46.006-7.42c-14.215-2.296-28.447-4.487-42.688-6.619c-11.278-1.689-21.615-4.575-24.664-17.68
		c-0.675-2.9-1.143-5.857-1.966-8.713c-3.51-12.172-6.386-24.591-10.844-36.41c-8.592-22.778-11.891-45.95-6.769-69.814
		c1.417-6.605,5.385-12.665,8.185-18.974c3.608-8.129,7.275-16.233,10.808-24.395C440.443,637.463,442.535,632.099,445.065,625.912z
		"/>
	<path fill-rule="evenodd" clip-rule="evenodd" fill="#FFFFFF" d="M647.717,545.025c1.877,3.248,3.42,6.756,5.708,9.681
		c3.348,4.28,2.935,8.673,0.2,12.435c-4.754,6.538-10.085,12.678-15.46,18.73c-1.813,2.042-4.433,3.411-6.793,4.916
		c-3.128,1.994-6.065,0.759-6.264-2.88c-0.129-2.372,0.09-5.214,1.291-7.133c7.153-11.426,9.716-24.127,10.817-37.229
		c0.624-7.429,0.555-14.916,1.192-22.343c0.154-1.791,1.455-4.059,2.937-5.071c14.449-9.874,29.087-19.473,43.576-29.289
		c3.05-2.066,5.515-2.353,8.391,0.232c7.216,6.486,11.771,14.179,11.708,24.156c-0.013,1.997,0.083,3.998-0.02,5.99
		c-0.248,4.851,1.093,9.885-2.873,14.164c-6.931,7.475-12.682,16.472-24.04,17.855c-6.17,0.751-12.079,1.023-17.82-2.984
		c-3.069-2.143-7.684-2.072-11.601-3.001C648.351,543.845,648.034,544.436,647.717,545.025z"/>
	<path fill-rule="evenodd" clip-rule="evenodd" fill="#FFFFFF" d="M407.809,731.473c-7.198,1.231-13.941,3.189-20.732,3.375
		c-13.292,0.364-22.029-8.675-30.232-17.352C343,693,355,670,369.925,665.175c2.38-0.77,5.204-2.02,7.938-2.356
		c9.127-1.125,18.195-1.261,26.708,3.154c6.685,3.467,8.325,8.103,5.295,15.017c-6.621,15.107-8.155,30.493-2.511,46.279
		C407.673,728.157,407.579,729.193,407.809,731.473z"/>
</g>
<g>
	<path fill-rule="evenodd" clip-rule="evenodd" fill="#EC008C" d="M731.805,395.868c-4.353-1.315-5.861-3.99-5.798-7.628
		c0.323-18.516-6.507-34.498-18.545-47.972c-11.423-12.786-24.831-23.172-41.283-29.304c-17.323-6.456-35.155-8.643-53.52-9.407
		c-37.668-1.568-72.694,8.587-106.981,22.465c-29.976,12.133-56.67,29.479-79.649,52.246c-15.12,14.981-28.77,31.263-38.051,50.63
		c-8.147,16.999-12.784,34.997-14.353,53.859c-1.013,12.179-0.659,24.166,2.266,36.018c0.952,3.855-1.133,5.392-4.141,5.877
		c-5.702,0.922-11.535,1.095-17.199,2.179c-6.599,1.264-12.491,4.062-17.036,9.426c-0.762,0.899-3.69,0.861-5.097,0.181
		c-17.862-8.644-32.162-21.378-43.042-37.99c-6.961-10.629-6.699-10.36,0.568-20.683c16.178-22.98,32.309-46.007,47.81-69.444
		c5.985-9.049,9.825-19.49,15.334-28.89c7.736-13.2,11.638-27.696,15.396-42.257c0.948-3.675,3.515-9.174,0.759-12.708
		C363,320,357.534,329.94,355.899,335.765c-3.993,14.23-11.107,26.831-18.635,39.296c-9.399,15.564-18.325,31.447-28.41,46.556
		c-16.56,24.809-33.186,49.74-55.46,69.97c-12.954,11.765-25.282,24.739-41.258,32.429c-16.797,8.084-34.674,9.845-52.749,3.936
		c-4.623-1.512-9.648-3.01-13.276-5.99c-3.391-2.785-5.499-7.364-7.574-11.456c-2.228-4.394-3.627-9.197-5.623-13.719
		c-4.121-9.339-3.788-19.734-2.102-28.729c3.921-20.917,7.425-42.172,18.747-61.124c14.45-24.186,29.578-47.82,47.74-69.42
		c20.702-24.621,43.226-47.461,69.44-66.132c17.744-12.638,36.833-23.372,55.128-35.256c13.994-9.091,27.942-18.293,41.456-28.074
		c25.694-18.598,54.111-31.203,84.534-39.511c4.4-1.202,9.215-0.898,13.841-1.256c6.446-0.499,12.026-2.6,15.169-8.709
		c3.922-7.625,7.744-15.305,11.475-23.026c7.268-15.049,16.662-28.63,28.261-40.625c17.261-17.852,36.477-33.511,58.104-45.552
		c9.87-5.496,21.619-7.994,32.799-10.667c13.637-3.262,27.581-3.163,41.521-1.057c14.104,2.131,24.967,10.213,35.546,18.777
		c12.173,9.854,23.203,20.805,31.425,34.343c5.311,8.745,8.454,18.259,11.294,28.008c3.318,11.395,8.212,22.346,7.471,34.656
		c-1.11,18.421-3.656,36.313-15.772,51.34c-7.273,9.02-15.886,15.483-28.124,15.232c-6.577-0.135-13.309,0.397-19.693-0.82
		c-11.33-2.16-20.318-9.426-29.298-16.095c-14.318-10.634-25.576-24.186-33.578-40.076c-6.777-13.46-12.299-27.507-14.04-42.717
		c-0.204-1.786-0.748-3.554-1.308-5.274c-1.328-4.081-5.07-5.02-7.116-1.309c-1.88,3.412-3.46,7.978-2.813,11.616
		c2.274,12.809,5.146,25.555,8.668,38.079c1.48,5.264,5.064,9.96,7.849,14.826c2.909,5.085,5.675,10.3,9.08,15.045
		c14.669,20.438,35.22,32.333,59.077,38.366c8.346,2.11,14.233,6.592,19.772,12.324c23.291,24.103,39.083,52.546,44.599,85.507
		c3.421,20.445,5.554,41.527,0.038,62.285C731.812,392.849,731.924,394.045,731.805,395.868z"/>
	<path fill-rule="evenodd" clip-rule="evenodd" fill="#EC008C" d="M480.389,577.819c5.599-1.702,10.305-3.261,15.081-4.56
		c13.345-3.629,26.719-7.148,41.147-10.996c-1.774,7.429-3.586,13.932-4.84,20.541c-1.506,7.938-2.366,15.999-3.849,23.942
		c-0.7,3.749-2.198,7.349-3.538,11.672C504.922,609.229,491.049,595.918,480.389,577.819z"/>
	<path fill-rule="evenodd" clip-rule="evenodd" fill="#EC008C" d="M595.911,540.267c9.331-4.516,18.034-8.809,26.853-12.853
		c0.772-0.354,2.642,0.644,3.373,1.531c0.75,0.909,0.991,2.453,1,3.723c0.075,11.531,0.08,23.14-5.161,33.778
		c-3.374,6.847-6.319,6.926-10.233,0.576C606.399,558.354,601.355,549.5,595.911,540.267z"/>
</g>
<path fill-rule="evenodd" clip-rule="evenodd" fill="#FFF200" d="M576.661,457.019c-4.958-0.651-8.983-2.084-10.888-6.151
	c-2.019-4.31-1.301-8.861,2.328-12.352c2.255-2.168,4.641-4.352,7.337-5.874c5.562-3.139,11.96-1.556,14.804,3.229
	c4.534,7.629,3.867,12.101-3.018,16.363C583.965,454.252,580.198,455.449,576.661,457.019z"/>
</svg>
